<?xml version="1.0" encoding="UTF-8" standalone="no"?>
<!-- Created with Inkscape (http://www.inkscape.org/) -->

<svg
   xmlns:dc="http://purl.org/dc/elements/1.1/"
   xmlns:cc="http://creativecommons.org/ns#"
   xmlns:rdf="http://www.w3.org/1999/02/22-rdf-syntax-ns#"
   xmlns:svg="http://www.w3.org/2000/svg"
   xmlns="http://www.w3.org/2000/svg"
   xmlns:sodipodi="http://sodipodi.sourceforge.net/DTD/sodipodi-0.dtd"
   xmlns:inkscape="http://www.inkscape.org/namespaces/inkscape"
   width="210mm"
   height="297mm"
   viewBox="0 0 210 297"
   version="1.1"
   id="svg8"
   inkscape:export-filename="/home/jay/OwaspHeaders.Core Logo.png"
   inkscape:export-xdpi="95.879997"
   inkscape:export-ydpi="95.879997"
   inkscape:version="0.92.3 (unknown)"
   sodipodi:docname="Logo.svg">
  <defs
     id="defs2" />
  <sodipodi:namedview
     id="base"
     pagecolor="#ffffff"
     bordercolor="#666666"
     borderopacity="1.0"
     inkscape:pageopacity="0.0"
     inkscape:pageshadow="2"
     inkscape:zoom="0.98994949"
     inkscape:cx="282.60408"
     inkscape:cy="899.88325"
     inkscape:document-units="mm"
     inkscape:current-layer="layer3"
     showgrid="false"
     inkscape:window-width="1920"
     inkscape:window-height="1001"
     inkscape:window-x="0"
     inkscape:window-y="27"
     inkscape:window-maximized="1" />
  <metadata
     id="metadata5">
    <rdf:RDF>
      <cc:Work
         rdf:about="">
        <dc:format>image/svg+xml</dc:format>
        <dc:type
           rdf:resource="http://purl.org/dc/dcmitype/StillImage" />
        <dc:title></dc:title>
      </cc:Work>
    </rdf:RDF>
  </metadata>
  <g
     inkscape:groupmode="layer"
     id="layer4"
     inkscape:label="Background">
    <ellipse
       id="path51"
       cx="104.23512"
       cy="74.631752"
       rx="70.559151"
       ry="69.490074"
       style="fill:#c3d1e4;stroke-width:0.26458332" />
  </g>
  <g
     inkscape:label="Padlock"
     inkscape:groupmode="layer"
     id="layer1"
     style="display:inline">
    <path
       style="fill:#008000;stroke-width:0.26458332"
       d="m 75.959552,117.20229 c -1.606521,-0.43578 -3.218256,-1.5584 -4.329961,-3.01594 -1.713351,-2.24635 -1.668758,-1.55471 -1.668758,-25.882697 0,-21.41619 0.01491,-22.07463 0.531283,-23.45474 0.292206,-0.781 0.949362,-1.90842 1.460347,-2.50539 0.972318,-1.13593 3.745623,-2.70907 4.775865,-2.70907 1.483033,0 1.434588,0.24155 1.434588,-7.15291 0,-7.86627 0.223858,-9.97837 1.436574,-13.55403 1.23407,-3.63864 2.992564,-6.44728 5.83947,-9.32671 3.48122,-3.521 7.33166,-5.70611 12.20713,-6.92751 2.71067,-0.67907 8.80733,-0.61263 11.51182,0.12545 8.90896,2.43135 15.58674,8.96716 17.94514,17.56363 0.76387,2.78431 1.05142,6.33827 1.05929,13.09221 0.007,6.32898 -0.0274,6.17987 1.44141,6.17987 0.9244,0 3.75732,1.52484 4.52259,2.43432 0.3777,0.44887 1.00755,1.42422 1.39967,2.16746 l 0.71295,1.35135 v 22.88645 22.886447 l -0.74373,1.51454 c -0.81606,1.66183 -2.26276,3.05363 -4.13107,3.9743 l -1.21062,0.59658 -26.45833,0.0514 c -21.109189,0.041 -26.716575,-0.0186 -27.735658,-0.29504 z m 52.145078,-28.662107 0.0678,-20.70364 H 103.16765 78.162916 v 20.5934 c 0,11.326367 0.07998,20.673367 0.177738,20.771127 0.09776,0.0977 11.319396,0.14736 24.936976,0.11024 l 24.75924,-0.0675 z m -8.40213,-36.40403 c 0,-6.33768 -0.0648,-7.48686 -0.52267,-9.27734 -0.77501,-3.03024 -1.93275,-5.01087 -4.36246,-7.46314 -1.72126,-1.73725 -2.55476,-2.34954 -4.37529,-3.21407 -2.81759,-1.33804 -4.43176,-1.71109 -7.36351,-1.70181 -2.77628,0.009 -5.03624,0.55375 -7.56254,1.82364 -2.51491,1.26415 -5.75566,4.50981 -7.10692,7.11768 -1.59971,3.08737 -1.7712,4.30487 -1.77562,12.60657 l -0.004,7.34219 h 16.53646 16.53646 z"
       id="path21"
       inkscape:connector-curvature="0"
       sodipodi:nodetypes="cssccssccccccscccccsccsccccccscsccccccccsccccc" />
  </g>
  <g
     inkscape:groupmode="layer"
     id="layer3"
     inkscape:label="Wasp">
    <path
       style="fill:#008000;stroke-width:0.26458335"
       d="m 102.93525,102.36843 c -0.46754,-0.23053 -1.17369,-0.84343 -1.56923,-1.362 -0.83697,-1.097329 -1.930974,-3.629619 -1.940054,-4.490669 -0.008,-0.76648 -0.37388,-0.7635 -0.72444,0.006 -0.5003,1.09804 -3.54864,4.955039 -3.91616,4.955039 -0.81444,0 -0.60121,-0.6171 0.88884,-2.572319 1.81243,-2.37825 3.45068,-5.24869 3.74802,-6.56706 l 0.20641,-0.91519 -0.96437,0.76762 c -1.51206,1.20357 -2.08296,1.93725 -2.28532,2.93695 -0.33358,1.6479 -3.30926,4.14536 -3.30926,2.77743 0,-0.21865 0.46666,-0.81916 1.03703,-1.33445 0.71689,-0.64767 1.08931,-1.23962 1.20641,-1.91754 0.21296,-1.23289 0.36323,-1.4204 2.78364,-3.47356 1.09141,-0.9258 2.043914,-1.73974 2.116674,-1.80875 0.0728,-0.069 -0.847334,0.36461 -2.044654,0.96361 -2.42071,1.21105 -3.39945,1.32959 -5.59482,0.67764 -0.91361,-0.27132 -1.74103,-0.76696 -2.42928,-1.45521 -0.57406,-0.57407 -1.2857,-1.04376 -1.58142,-1.04376 -0.83498,0 -2.42664,-0.74828 -3.26588,-1.53539 -0.77641,-0.72817 -2.28128,-3.56065 -2.28166,-4.29454 -1.2e-4,-0.22329 0.38674,-0.64 0.85969,-0.92604 0.73138,-0.44234 1.31462,-0.51599 3.9026,-0.49277 2.91548,0.0262 4.81843,0.38677 9.73296,1.84438 0.55172,0.16364 0.58237,0.12418 0.34904,-0.44927 -0.14068,-0.34576 -0.32015,-0.93345 -0.39881,-1.30596 -0.0852,-0.4035 -0.62741,-1.02518 -1.34123,-1.537795 -1.26278,-0.90686 -1.45538,-1.27469 -0.79929,-1.52646 0.85125,-0.32665 2.89787,1.56721 3.29752,3.051375 0.17609,0.65396 0.55984,1.26325 0.9613,1.5263 0.629954,0.41276 0.697574,0.40846 1.181204,-0.0752 0.5076,-0.5076 0.5073,-0.52403 -0.0288,-1.56301 -0.54399,-1.054215 -0.53177,-2.573125 0.0253,-3.147455 0.14309,-0.14752 -0.29522,-0.80916 -1.099134,-1.65918 -0.73542,-0.77759 -1.29082,-1.55271 -1.23424,-1.72248 0.2251,-0.67528 0.76198,-0.44987 1.975124,0.82927 l 1.2697,1.33877 1.25677,-0.45905 c 1.19279,-0.43568 1.32076,-0.43568 2.51354,0 l 1.25677,0.45905 1.2697,-1.33877 c 1.19868,-1.26388 1.75031,-1.50368 1.96658,-0.85488 0.0519,0.15567 -0.48428,0.91233 -1.1915,1.68146 l -1.28584,1.39841 0.39687,1.10366 c 0.37305,1.03741 0.36235,1.17343 -0.17829,2.266145 -0.56766,1.14736 -0.56852,1.16912 -0.0659,1.67177 0.47987,0.47986 0.54789,0.48399 1.17749,0.0715 0.40147,-0.26305 0.78521,-0.87234 0.9613,-1.5263 0.39965,-1.484165 2.44628,-3.378025 3.29752,-3.051375 0.6561,0.25177 0.46349,0.6196 -0.79929,1.52646 -0.71381,0.512615 -1.25603,1.134295 -1.34123,1.537795 -0.0787,0.37251 -0.25813,0.9602 -0.39881,1.30596 -0.23333,0.57345 -0.20268,0.61291 0.34904,0.44927 4.91453,-1.45761 6.81748,-1.81822 9.73296,-1.84438 2.58798,-0.0232 3.17122,0.0504 3.9026,0.49277 0.47295,0.28604 0.8598,0.70275 0.85969,0.92604 -2.7e-4,0.73389 -1.50525,3.56637 -2.28166,4.29454 -0.83924,0.78711 -2.4309,1.53539 -3.26588,1.53539 -0.29572,0 -1.00736,0.46969 -1.58142,1.04376 -0.68825,0.68825 -1.51567,1.18389 -2.42928,1.45521 -2.12177,0.63009 -3.19344,0.52522 -5.25822,-0.51459 -1.01138,-0.50932 -1.90816,-0.92604 -1.99284,-0.92604 -0.0847,0 0.71602,0.74371 1.77933,1.65269 2.37766,2.03256 2.52256,2.21332 2.72825,3.40343 0.10815,0.62576 0.52413,1.30569 1.20641,1.97192 0.57275,0.55927 1.04135,1.17128 1.04135,1.36003 0,1.32917 -3.03904,-1.25352 -3.33702,-2.83594 -0.1896,-1.00681 -0.75642,-1.73804 -2.29863,-2.96536 l -1.00544,-0.80015 0.17949,0.76033 c 0.31776,1.34604 2.04321,4.40482 3.75538,6.65729 1.58239,2.081749 1.80977,2.702009 0.99054,2.702009 -0.38138,0 -3.28336,-3.693739 -4.01781,-5.114009 l -0.43146,-0.83434 -0.44055,1.58511 c -0.75334,2.71049 -1.92602,4.489739 -3.50167,5.312899 -0.89898,0.46965 -1.19785,0.46196 -2.25227,-0.0579 z m 2.50371,-1.50645 c 0.32742,-0.29472 0.59531,-0.63417 0.59531,-0.75432 0,-0.120149 -0.89888,-0.218459 -1.99752,-0.218459 -1.73559,0 -1.9671,0.0543 -1.76557,0.414469 0.36205,0.64695 1.67654,1.40792 2.14727,1.24308 0.23386,-0.0819 0.69309,-0.39004 1.02051,-0.68477 z m 1.92478,-2.974379 c 0.14192,-0.37328 0.25803,-0.73046 0.25803,-0.79375 0,-0.0633 -1.54781,-0.11507 -3.43958,-0.11507 -3.54188,0 -3.7107,0.0574 -3.16569,1.07573 0.24528,0.45831 0.57762,0.51177 3.18155,0.51177 2.87772,0 2.91031,-0.007 3.16569,-0.67868 z m 0.52262,-3.29007 v -0.79375 h -3.68855 c -2.02871,0 -3.74937,0.0984 -3.8237,0.21867 -0.0743,0.12026 -0.0675,0.47745 0.0152,0.79375 0.14528,0.55555 0.27514,0.57508 3.8237,0.57508 h 3.67331 z m -0.26864,-2.71198 c -0.0111,-0.90773 -0.40551,-1.01046 -3.58887,-0.93483 -3.0432,0.0723 -3.15692,0.0958 -3.2385,0.67025 -0.084,0.5913 -0.0613,0.59531 3.37344,0.59531 2.59216,0 3.45697,-0.0828 3.45393,-0.33073 z"
       id="path46"
       inkscape:connector-curvature="0" />
  </g>
</svg>
